<svg width="230" height="68" viewBox="0 0 230 68" fill="none" xmlns="http://www.w3.org/2000/svg">
<g id="logo 1" clip-path="url(#clip0_534_1599)">
<g id="Clip path group">
<mask id="mask0_534_1599" style="mask-type:luminance" maskUnits="userSpaceOnUse" x="0" y="17" width="230" height="34">
<g id="clip0_1064_606">
<path id="Vector" d="M229.526 17H0V50.7793H229.526V17Z" fill="white"/>
</g>
</mask>
<g mask="url(#mask0_534_1599)">
<g id="Group">
<path id="Vector_2" d="M38.561 43.633L32.265 50.3185C32.1288 50.4637 31.9639 50.5796 31.7805 50.6589C31.5971 50.7382 31.3992 50.7793 31.1991 50.7794H1.35358C1.21124 50.7794 1.072 50.7382 0.952925 50.6609C0.833852 50.5837 0.740109 50.4737 0.683171 50.3445C0.626234 50.2153 0.608575 50.0725 0.632359 49.9335C0.656143 49.7945 0.720332 49.6654 0.817074 49.562L7.10594 42.8765C7.24213 42.7313 7.40703 42.6154 7.59044 42.5361C7.77381 42.4568 7.97175 42.4157 8.17185 42.4155H38.0173C38.1609 42.4126 38.3023 42.4518 38.4235 42.5282C38.5446 42.6047 38.6405 42.7149 38.6985 42.845C38.7567 42.9751 38.7745 43.1194 38.75 43.2596C38.7255 43.3999 38.6597 43.5298 38.561 43.633ZM32.265 30.167C32.1283 30.0225 31.9633 29.9071 31.78 29.8278C31.5967 29.7485 31.399 29.7071 31.1991 29.7061H1.35358C1.21124 29.7062 1.072 29.7474 0.952925 29.8246C0.833852 29.9019 0.740109 30.0118 0.683171 30.141C0.626234 30.2702 0.608575 30.4131 0.632359 30.552C0.656143 30.691 0.720332 30.8202 0.817074 30.9236L7.10594 37.6126C7.24263 37.7571 7.40767 37.8725 7.59093 37.9518C7.7742 38.0311 7.97189 38.0725 8.17185 38.0735H38.0173C38.1595 38.0728 38.298 38.0311 38.4167 37.9536C38.5354 37.8761 38.6285 37.7661 38.685 37.637C38.7414 37.5079 38.7589 37.3654 38.7347 37.2267C38.7109 37.088 38.6469 36.9592 38.5503 36.8561L32.265 30.167ZM1.35358 25.364H31.1991C31.3992 25.3639 31.5971 25.3228 31.7805 25.2435C31.9639 25.1642 32.1288 25.0483 32.265 24.9031L38.561 18.2176C38.6597 18.1144 38.7255 17.9844 38.75 17.8442C38.7745 17.704 38.7567 17.5598 38.6985 17.4296C38.6405 17.2995 38.5446 17.1893 38.4235 17.1128C38.3023 17.0364 38.1609 16.9972 38.0173 17.0002H8.17185C7.97175 17.0004 7.77381 17.0414 7.59044 17.1207C7.40703 17.2 7.24213 17.3159 7.10594 17.4611L0.817074 24.1466C0.720332 24.25 0.656143 24.3791 0.632359 24.5181C0.608575 24.6571 0.626234 24.7999 0.683171 24.9291C0.740109 25.0583 0.833852 25.1683 0.952925 25.2455C1.072 25.3228 1.21124 25.364 1.35358 25.364Z" fill="url(#paint0_linear_534_1599)"/>
<path id="Vector_3" d="M74.9478 31.286H58.9804V26.0783H79.0977V20.8707H58.9271C58.2378 20.867 57.555 20.9977 56.9168 21.2555C56.2787 21.5133 55.6978 21.893 55.2082 22.3729C54.7182 22.8529 54.3284 23.4238 54.0613 24.0529C53.7941 24.682 53.6544 25.3571 53.6509 26.0396V31.3176C53.6537 32.0007 53.7923 32.6766 54.0591 33.3065C54.326 33.9364 54.7154 34.5081 55.2053 34.9888C55.6956 35.4696 56.2766 35.8499 56.915 36.1081C57.5535 36.3663 58.2375 36.4973 58.9271 36.4936H74.9158V41.7012H54.0311V46.9089H74.9478C75.6371 46.9126 76.3199 46.7818 76.9581 46.5241C77.5962 46.2663 78.1771 45.8866 78.6667 45.4066C79.1567 44.9266 79.5465 44.3558 79.8136 43.7267C80.0808 43.0975 80.2205 42.4224 80.224 41.74V36.4619C80.2212 35.7789 80.0826 35.103 79.8158 34.4731C79.5489 33.8431 79.1595 33.2714 78.6696 32.7907C78.1792 32.31 77.5983 31.9297 76.9598 31.6715C76.3214 31.4133 75.6374 31.2823 74.9478 31.286Z" fill="white"/>
<path id="Vector_4" d="M105.88 20.8708H89.8525C89.1621 20.8652 88.4775 20.9946 87.8376 21.2515C87.198 21.5085 86.6157 21.8879 86.1243 22.368C85.6325 22.8482 85.2417 23.4197 84.9738 24.0497C84.7056 24.6798 84.5656 25.356 84.562 26.0397V41.74C84.5656 42.4237 84.7056 43.1 84.9738 43.73C85.2417 44.3601 85.6325 44.9316 86.1243 45.4117C86.6157 45.8919 87.198 46.2713 87.8376 46.5282C88.4775 46.7852 89.1621 46.9145 89.8525 46.909H105.88C106.57 46.9127 107.252 46.7819 107.891 46.5242C108.529 46.2664 109.11 45.8867 109.599 45.4067C110.089 44.9267 110.479 44.3559 110.746 43.7268C111.013 43.0976 111.153 42.4225 111.156 41.74V26.0397C111.153 25.3572 111.013 24.6821 110.746 24.053C110.479 23.4239 110.089 22.853 109.599 22.373C109.11 21.8931 108.529 21.5134 107.891 21.2556C107.252 20.9978 106.57 20.8671 105.88 20.8708ZM105.841 41.7013H89.8916V26.0784H105.834L105.841 41.7013Z" fill="white"/>
<path id="Vector_5" d="M162.018 20.871H146.385C145.695 20.8673 145.012 20.998 144.374 21.2558C143.736 21.5136 143.155 21.8933 142.666 22.3733C142.176 22.8532 141.786 23.4241 141.519 24.0532C141.252 24.6823 141.112 25.3574 141.108 26.0399V46.9092H146.438V38.3553H162V46.9092H167.33V26.0399C167.326 25.3545 167.186 24.6765 166.916 24.045C166.647 23.4136 166.254 22.8412 165.76 22.3607C165.267 21.8803 164.682 21.5013 164.039 21.2456C163.397 20.99 162.71 20.8627 162.018 20.871ZM161.979 33.1477H146.417V26.0786H161.979V33.1477Z" fill="white"/>
<path id="Vector_6" d="M224.249 20.8707H208.616C207.927 20.867 207.244 20.9977 206.606 21.2555C205.968 21.5133 205.387 21.893 204.897 22.3729C204.407 22.8529 204.017 23.4238 203.75 24.0529C203.483 24.682 203.343 25.3571 203.34 26.0396V46.9089H208.669V38.355H224.196V46.9089H229.526V26.0396C229.522 25.3571 229.383 24.682 229.115 24.0529C228.848 23.4238 228.458 22.8529 227.968 22.3729C227.478 21.893 226.898 21.5133 226.26 21.2555C225.622 20.9977 224.939 20.867 224.249 20.8707ZM224.196 33.1473H208.634V26.0783H224.196V33.1473Z" fill="white"/>
<path id="Vector_7" d="M193.285 41.7012H191.153L183.532 23.0522C183.271 22.4088 182.821 21.8574 182.241 21.4688C181.662 21.08 180.978 20.8718 180.277 20.8707H175.548C175.089 20.8683 174.633 20.9557 174.208 21.1277C173.782 21.2998 173.395 21.5531 173.068 21.8733C172.742 22.1936 172.482 22.5743 172.304 22.994C172.126 23.4136 172.033 23.8638 172.031 24.319V46.9089H177.36V26.0783H179.492L187.11 44.7273C187.375 45.3694 187.828 45.9186 188.411 46.3047C188.993 46.6908 189.678 46.8962 190.379 46.8948H195.108C195.567 46.8971 196.023 46.8098 196.448 46.6377C196.874 46.4657 197.261 46.2123 197.588 45.8921C197.914 45.5719 198.174 45.1911 198.352 44.7715C198.53 44.3519 198.623 43.9017 198.625 43.4465V20.8707H193.285V41.7012Z" fill="white"/>
<path id="Vector_8" d="M121.194 20.8706H115.864V41.7399C115.868 42.4239 116.008 43.1004 116.276 43.7307C116.545 44.361 116.936 44.9326 117.428 45.4128C117.919 45.893 118.502 46.2724 119.142 46.5291C119.783 46.7858 120.468 46.9148 121.158 46.9088H137.147V41.7012H121.194V20.8706Z" fill="white"/>
</g>
</g>
</g>
</g>
<defs>
<linearGradient id="paint0_linear_534_1599" x1="3.84071" y1="51.5852" x2="34.7959" y2="16.3461" gradientUnits="userSpaceOnUse">
<stop offset="0.08" stop-color="#9945FF"/>
<stop offset="0.3" stop-color="#8752F3"/>
<stop offset="0.5" stop-color="#5497D5"/>
<stop offset="0.6" stop-color="#43B4CA"/>
<stop offset="0.72" stop-color="#28E0B9"/>
<stop offset="0.97" stop-color="#19FB9B"/>
</linearGradient>
<clipPath id="clip0_534_1599">
<rect width="230" height="68" fill="white"/>
</clipPath>
</defs>
</svg>
