<svg width="760" height="2000" viewBox="0 0 760 2000" fill="none" xmlns="http://www.w3.org/2000/svg">
<g clip-path="url(#clip0_417_973)">
<path d="M0 -0.00012207V2000H760V-0.00012207H0Z" fill="#DFEEFF"/>
<path d="M382.249 773.555C369.886 793.15 355.875 810.771 355.875 834.656C355.875 885.372 400.749 905.582 400.749 949.778C400.749 1002.67 356.153 1023.68 356.153 1069.32C356.153 1114.97 400.749 1135.98 400.749 1188.87C400.749 1233.06 355.875 1257.68 355.875 1308.4C355.875 1331.14 368.575 1346.95 380.462 1364.28" stroke="#688EEE" stroke-width="1.6875"/>
<g filter="url(#filter0_f_417_973)">
<path d="M388.249 773.555C375.886 793.15 361.875 810.771 361.875 834.656C361.875 885.372 406.749 905.582 406.749 949.778C406.749 1002.67 362.153 1023.68 362.153 1069.32C362.153 1114.97 406.749 1135.98 406.749 1188.87C406.749 1233.06 361.875 1257.68 361.875 1308.4C361.875 1331.14 374.575 1346.95 386.462 1364.28" stroke="black" stroke-opacity="0.4" stroke-width="1.6875"/>
</g>
<path d="M398.749 949.777C398.749 950.882 399.644 951.777 400.749 951.777C401.853 951.777 402.749 950.882 402.749 949.777H398.749ZM383.941 774.622L385.008 772.93L381.625 770.796L380.558 772.487L383.941 774.622ZM402.749 949.777C402.749 926.976 391.13 910.372 379.979 893.557C368.765 876.648 357.875 859.361 357.875 834.656H353.875C353.875 860.667 365.421 878.843 376.645 895.767C387.931 912.785 398.749 928.383 398.749 949.777H402.749ZM357.875 834.656C357.875 811.502 371.4 794.497 383.941 774.622L380.558 772.487C368.371 791.803 353.875 810.039 353.875 834.656H357.875Z" fill="#1E75BA"/>
<path d="M400.755 954.015C402.725 954.015 404.322 952.418 404.322 950.448C404.322 948.478 402.725 946.881 400.755 946.881C398.785 946.881 397.188 948.478 397.188 950.448C397.188 952.418 398.785 954.015 400.755 954.015Z" fill="#1E75BA" stroke="#1E75BA"/>
</g>
<defs>
<filter id="filter0_f_417_973" x="351.031" y="763.105" width="66.5605" height="611.651" filterUnits="userSpaceOnUse" color-interpolation-filters="sRGB">
<feFlood flood-opacity="0" result="BackgroundImageFix"/>
<feBlend mode="normal" in="SourceGraphic" in2="BackgroundImageFix" result="shape"/>
<feGaussianBlur stdDeviation="5" result="effect1_foregroundBlur_417_973"/>
</filter>
<clipPath id="clip0_417_973">
<rect width="760" height="2000" fill="white"/>
</clipPath>
</defs>
</svg>