<svg xmlns="http://www.w3.org/2000/svg" width="32" height="32" viewBox="0 0 32 32" fill="none">
  <path d="M25.6938 8.1064C23.9205 7.27974 22.0005 6.67974 20.0005 6.33307C19.9829 6.33251 19.9655 6.3358 19.9494 6.34271C19.9333 6.34962 19.9188 6.35998 19.9071 6.37307C19.6671 6.81307 19.3871 7.3864 19.2005 7.8264C17.0791 7.5064 14.9218 7.5064 12.8005 7.8264C12.6138 7.37307 12.3338 6.81307 12.0805 6.37307C12.0671 6.3464 12.0271 6.33307 11.9871 6.33307C9.98715 6.67974 8.08048 7.27974 6.29381 8.1064C6.28048 8.1064 6.26715 8.11974 6.25382 8.13307C2.62715 13.5597 1.62715 18.8397 2.12048 24.0664C2.12048 24.0931 2.13382 24.1197 2.16048 24.1331C4.56048 25.8931 6.86715 26.9597 9.14715 27.6664C9.18715 27.6797 9.22715 27.6664 9.24048 27.6397C9.77381 26.9064 10.2538 26.1331 10.6671 25.3197C10.6938 25.2664 10.6671 25.2131 10.6138 25.1997C9.85382 24.9064 9.13381 24.5597 8.42715 24.1597C8.37382 24.1331 8.37381 24.0531 8.41382 24.0131C8.56048 23.9064 8.70715 23.7864 8.85381 23.6797C8.88048 23.6531 8.92048 23.6531 8.94715 23.6664C13.5338 25.7597 18.4805 25.7597 23.0138 23.6664C23.0405 23.6531 23.0805 23.6531 23.1071 23.6797C23.2538 23.7997 23.4005 23.9064 23.5471 24.0264C23.6005 24.0664 23.6005 24.1464 23.5338 24.1731C22.8405 24.5864 22.1071 24.9197 21.3471 25.2131C21.2938 25.2264 21.2805 25.2931 21.2938 25.3331C21.7205 26.1464 22.2005 26.9197 22.7205 27.6531C22.7605 27.6664 22.8005 27.6797 22.8405 27.6664C25.1338 26.9597 27.4405 25.8931 29.8405 24.1331C29.8671 24.1197 29.8805 24.0931 29.8805 24.0664C30.4671 18.0264 28.9071 12.7864 25.7471 8.13307C25.7338 8.11974 25.7205 8.1064 25.6938 8.1064ZM11.3605 20.8797C9.98715 20.8797 8.84048 19.6131 8.84048 18.0531C8.84048 16.4931 9.96048 15.2264 11.3605 15.2264C12.7738 15.2264 13.8938 16.5064 13.8805 18.0531C13.8805 19.6131 12.7605 20.8797 11.3605 20.8797ZM20.6538 20.8797C19.2805 20.8797 18.1338 19.6131 18.1338 18.0531C18.1338 16.4931 19.2538 15.2264 20.6538 15.2264C22.0671 15.2264 23.1871 16.5064 23.1738 18.0531C23.1738 19.6131 22.0671 20.8797 20.6538 20.8797Z" fill="#586EBA"/>
</svg>