<svg width="1440" height="102" viewBox="0 0 1440 102" fill="none" xmlns="http://www.w3.org/2000/svg">
<g clip-path="url(#clip0_1_2)">
<path d="M1788.75 92.6923C1694.77 66.5654 1633.29 61.0062 1518.32 61.0062C1396.57 61.0062 1370.94 92.6923 1314.33 92.6923C1240.86 92.6923 1207.42 22.6025 1144.41 22.6025C1069.65 22.6025 1039.86 92.6923 974.717 92.6923C896.754 92.6923 865.783 23.0363 798.5 23.0363C731.217 23.0363 700.246 92.6923 622.283 92.6923C557.137 92.6923 520.848 22.6025 446.089 22.6025C383.078 22.6025 356.143 92.6923 282.666 92.6923C226.063 92.6923 200.431 61.0062 78.6818 61.0062C-11.2954 61.0062 -116.269 61.0062 -191.25 92.6923" stroke="#688EEE" stroke-width="3"/>
<path d="M620.533 92.0898C555.387 92.0898 519.098 22 444.339 22C381.328 22 354.393 92.0898 280.916 92.0898C224.313 92.0898 198.681 60.4037 76.9318 60.4037C-13.0454 60.4037 -118.019 60.4037 -193 92.0898" stroke="#1E75BA" stroke-width="6" stroke-linecap="round"/>
<path d="M625.497 92C625.497 95.0377 623.035 97.5 619.998 97.5C616.962 97.5 614.5 95.0377 614.5 92C614.5 88.9623 616.962 86.5 619.998 86.5C623.035 86.5 625.497 88.9623 625.497 92Z" fill="#1E75BA" stroke="#1E75BA"/>
</g>
<defs>
<clipPath id="clip0_1_2">
<rect width="1440" height="102" fill="white"/>
</clipPath>
</defs>
</svg>
