<svg xmlns="http://www.w3.org/2000/svg" width="32" height="32" viewBox="0 0 32 32" fill="none">
  <path d="M15.5 3C13.7272 3 11.9717 3.35786 10.3338 4.05314C8.69588 4.74842 7.20765 5.76751 5.95406 7.05223C3.42232 9.64682 2 13.1659 2 16.8352C2 22.9503 5.8745 28.1385 11.234 29.9786C11.909 30.0893 12.125 29.6604 12.125 29.2868V26.9487C8.3855 27.7788 7.589 25.0948 7.589 25.0948C6.968 23.4899 6.0905 23.061 6.0905 23.061C4.862 22.2032 6.185 22.2309 6.185 22.2309C7.535 22.3277 8.2505 23.6559 8.2505 23.6559C9.425 25.7588 11.4095 25.1363 12.179 24.8042C12.3005 23.9049 12.6515 23.2962 13.0295 22.9503C10.0325 22.6044 6.887 21.4146 6.887 16.1434C6.887 14.6077 7.4 13.3764 8.2775 12.3941C8.1425 12.0482 7.67 10.6093 8.4125 8.74159C8.4125 8.74159 9.5465 8.36804 12.125 10.1528C13.1915 9.84841 14.3525 9.69622 15.5 9.69622C16.6475 9.69622 17.8085 9.84841 18.875 10.1528C21.4535 8.36804 22.5875 8.74159 22.5875 8.74159C23.33 10.6093 22.8575 12.0482 22.7225 12.3941C23.6 13.3764 24.113 14.6077 24.113 16.1434C24.113 21.4284 20.954 22.5906 17.9435 22.9365C18.4295 23.3654 18.875 24.2093 18.875 25.496V29.2868C18.875 29.6604 19.091 30.1031 19.7795 29.9786C25.139 28.1247 29 22.9503 29 16.8352C29 15.0183 28.6508 13.2192 27.9724 11.5407C27.2939 9.86212 26.2995 8.33694 25.0459 7.05223C23.7924 5.76751 22.3041 4.74842 20.6662 4.05314C19.0283 3.35786 17.2728 3 15.5 3Z" fill="#586EBA"/>
</svg>