<svg xmlns="http://www.w3.org/2000/svg" width="1440" height="70" viewBox="0 0 1440 70" fill="none">
  <path d="M1710.5 68.1632C1616.5 43.5 1555 38.2522 1440 38.2522C1318.22 38.2522 1292.58 68.1632 1235.96 68.1632C1162.47 68.1632 1129.03 2 1066 2C991.223 2 961.424 68.1632 896.261 68.1632C818.279 68.1632 787.3 2.40948 720 2.40948C652.7 2.40948 621.721 68.1632 543.739 68.1632C478.576 68.1632 442.277 2 367.5 2C304.473 2 277.531 68.1632 204.036 68.1632C147.418 68.1632 121.78 38.2522 0 38.2522C-90 38.2522 -195 38.2522 -270 68.1632" stroke="#688EEE" stroke-width="3"/>
</svg>