<svg xmlns="http://www.w3.org/2000/svg" width="1440" height="674" viewBox="0 0 1440 674" fill="none">
  <path d="M720 364C652.7 364 621.721 429.766 543.739 429.766C478.576 429.766 442.777 363.5 368 363.5C304.973 363.5 277.531 429.766 204.036 429.766C147.418 429.766 121.78 399.989 0 399.989V674H1440V399.989C1318.22 399.989 1292.58 429.766 1235.96 429.766C1162.47 429.766 1127.53 364 1064.5 364C989.723 364 961.424 429.766 896.261 429.766C818.279 429.766 787.3 364 720 364Z" fill="url(#paint0_linear_320_22)"/>
  <path d="M543.739 429.766C621.721 429.766 652.7 364 720 364C787.3 364 818.279 429.766 896.261 429.766C961.424 429.766 989.723 364 1064.5 364C1127.53 364 1162.47 429.766 1235.96 429.766C1292.58 429.766 1318.22 399.989 1440 399.989V0H0V399.989C121.78 399.989 147.418 429.766 204.036 429.766C277.531 429.766 304.973 363.5 368 363.5C442.777 363.5 478.576 429.766 543.739 429.766Z" fill="url(#paint1_linear_320_22)"/>
  <defs>
    <linearGradient id="paint0_linear_320_22" x1="720" y1="364.895" x2="720" y2="675" gradientUnits="userSpaceOnUse">
      <stop stop-color="#96C7FF"/>
      <stop offset="1" stop-color="#80B6F2" stop-opacity="0"/>
    </linearGradient>
    <linearGradient id="paint1_linear_320_22" x1="720" y1="263.939" x2="720" y2="0.658218" gradientUnits="userSpaceOnUse">
      <stop stop-color="#D5E8FF"/>
      <stop offset="1" stop-color="#C0DEFF" stop-opacity="0"/>
    </linearGradient>
  </defs>
</svg>