<svg width="28" height="28" viewBox="0 0 28 28" xmlns="http://www.w3.org/2000/svg">
<g id="Property 1=linkedin">
<path id="Vector" d="M8.0966 5.83352C8.09629 6.45236 7.85016 7.04573 7.41236 7.4831C6.97455 7.92046 6.38094 8.166 5.7621 8.16569C5.14326 8.16538 4.54989 7.91925 4.11252 7.48145C3.67516 7.04364 3.42962 6.45003 3.42993 5.83119C3.43024 5.21235 3.67637 4.61898 4.11417 4.18162C4.55198 3.74425 5.14559 3.49871 5.76443 3.49902C6.38327 3.49933 6.97664 3.74546 7.41401 4.18327C7.85137 4.62107 8.09691 5.21469 8.0966 5.83352ZM8.1666 9.89352H3.49993V24.5002H8.1666V9.89352ZM15.5399 9.89352H10.8966V24.5002H15.4933V16.8352C15.4933 12.5652 21.0583 12.1685 21.0583 16.8352V24.5002H25.6666V15.2485C25.6666 8.05019 17.4299 8.31852 15.4933 11.8535L15.5399 9.89352Z"/>
</g>
</svg>
