<svg width="420" height="68" viewBox="0 0 420 68" fill="none" xmlns="http://www.w3.org/2000/svg">
<path d="M19.5935 10.2988C19.0038 10.5296 14.3374 15.8137 14.4912 16.0446C14.5938 16.1985 19.055 16.3011 25.9007 16.3011H37.1308L39.5409 13.7103C40.8485 12.2995 41.9253 10.94 41.9253 10.7092C41.9253 10.2988 41.0023 10.2731 30.9004 10.2218C24.8495 10.1962 19.7473 10.2475 19.5935 10.2988ZM14.4912 19.8922C14.3374 20.1487 18.7474 25.125 19.5165 25.5354C19.7729 25.6893 24.3367 25.7919 30.9004 25.7919C40.4126 25.7919 41.8228 25.7406 41.951 25.4072C42.0535 25.1507 41.2587 24.099 39.6178 22.3291L37.1308 19.6357H25.9007C18.9781 19.6357 14.5938 19.7383 14.4912 19.8922ZM17.0039 31.5634C15.6194 33.0512 14.4912 34.4107 14.4912 34.5902C14.4912 34.8211 16.3116 34.9237 22.26 34.975L30.003 35.0263V31.9482V28.8701H24.7726H19.5165L17.0039 31.5634ZM31.1312 29.2035C31.0799 29.3831 31.0542 30.7426 31.0799 32.2303L31.1568 34.898L32.5157 34.975L33.8489 35.0519V42.7216V50.3655L36.1821 52.4433L38.5409 54.521H45.4379H52.3605L54.6424 52.4433L56.9243 50.3399V42.6959V35.0263H58.3345H59.7447V31.9482V28.8701H53.8476H47.9506V31.9482V35.0263H49.1043H50.2581L50.2068 41.7468L50.1299 48.493H45.3866H40.6434L40.5664 41.7468L40.5152 35.0263H41.6689H42.8227V31.9482V28.8701H37.0539C32.4901 28.8701 31.2337 28.947 31.1312 29.2035Z" fill="url(#paint0_linear_534_1611)"/>
<path d="M49.1041 15.0171L48.3605 17.3001L45.8222 17.377L43.2583 17.454L45.2325 18.8648C46.3094 19.6343 47.1811 20.3782 47.1811 20.5577C47.1811 20.7116 46.8991 21.7377 46.5401 22.8407C46.2068 23.9437 45.9504 24.8927 46.0017 24.9697C46.053 25.021 46.9247 24.4823 47.899 23.7641C48.8733 23.0459 49.7963 22.4559 49.9245 22.4559C50.0527 22.4559 50.9501 23.0202 51.9244 23.7384C52.8987 24.431 53.7961 25.021 53.8986 25.021C53.9755 25.021 53.7192 23.9693 53.2833 22.6868C52.6423 20.7629 52.5654 20.3012 52.8474 20.1217C53.0525 20.0191 53.9499 19.3778 54.8729 18.6852L56.5395 17.454L54.0012 17.3257L51.4885 17.1975L50.8475 15.1454C50.4886 14.0167 50.1296 13.0164 50.0271 12.8881C49.9245 12.7855 49.5143 13.7346 49.1041 15.0171Z" fill="url(#paint1_linear_534_1611)"/>
<path d="M23.8495 39.2843C23.6957 39.6691 23.388 40.6438 23.1316 41.4646L22.6957 42.9524L20.1318 43.0293L17.5679 43.1063L19.5677 44.6197C20.6446 45.4405 21.542 46.1844 21.542 46.287C21.542 46.364 21.2343 47.3387 20.8753 48.4417C20.5164 49.5447 20.26 50.5194 20.3626 50.5964C20.4395 50.6733 21.2856 50.1347 22.2599 49.4164C23.2342 48.6982 24.1059 48.1082 24.2085 48.1082C24.2854 48.1082 25.1571 48.6982 26.1571 49.4164C27.157 50.1603 28.0287 50.6733 28.1056 50.5964C28.1826 50.5194 27.9518 49.5447 27.5929 48.4417C27.2339 47.3387 26.9262 46.364 26.9262 46.2614C26.9262 46.1331 27.8236 45.3892 28.9261 44.5941L30.9003 43.1063L28.3108 43.0293L25.7468 42.9524L25.1315 40.9003C24.8238 39.7973 24.4392 38.7969 24.3367 38.72C24.2085 38.643 23.9777 38.8995 23.8495 39.2843Z" fill="url(#paint2_linear_534_1611)"/>
<path d="M95.2897 32.0816H79.7894V26.9746H99.3182V21.8676H79.7376C79.0686 21.8639 78.4054 21.992 77.7859 22.2448C77.1664 22.4975 76.6027 22.8699 76.1271 23.3406C75.6515 23.8113 75.2732 24.3712 75.0139 24.9882C74.7545 25.6052 74.6192 26.2673 74.6157 26.9366V32.1126C74.6183 32.7825 74.753 33.4454 75.0119 34.0631C75.2708 34.681 75.649 35.2416 76.1247 35.7131C76.6004 36.1846 77.1644 36.5575 77.7843 36.8107C78.4043 37.0639 79.068 37.1923 79.7376 37.1885H95.2586V42.2955H74.9848V47.4025H95.2897C96.2972 47.4082 97.2838 47.1146 98.1247 46.5591C98.9655 46.0036 99.6227 45.211 100.013 44.2818C100.273 43.6648 100.408 43.0028 100.412 42.3335V37.1575C100.409 36.4877 100.274 35.8248 100.015 35.207C99.7564 34.5893 99.3782 34.0285 98.9025 33.5571C98.4267 33.0857 97.8628 32.7127 97.2429 32.4595C96.6231 32.2063 95.9592 32.0779 95.2897 32.0816ZM125.318 21.8676H109.759C108.749 21.8595 107.76 22.1516 106.917 22.7066C106.074 23.2617 105.415 24.0547 105.023 24.9853C104.762 25.603 104.626 26.2662 104.623 26.9366V42.3335C104.626 43.004 104.762 43.6672 105.023 44.2852C105.415 45.2157 106.074 46.0088 106.917 46.5638C107.76 47.1188 108.749 47.4107 109.759 47.4025H125.318C125.987 47.4063 126.65 47.2781 127.269 47.0253C127.889 46.7726 128.452 46.4002 128.928 45.9295C129.404 45.4587 129.782 44.8989 130.041 44.2819C130.301 43.6649 130.436 43.0028 130.439 42.3335V26.9366C130.436 26.2673 130.301 25.6053 130.041 24.9883C129.782 24.3713 129.403 23.8116 128.928 23.341C128.452 22.8701 127.889 22.4976 127.269 22.2448C126.65 21.992 125.987 21.8638 125.318 21.8676ZM125.28 42.2955H109.797V26.9746H125.273L125.28 42.2955ZM179.813 21.8676H164.637C163.968 21.8639 163.305 21.992 162.686 22.2448C162.066 22.4975 161.502 22.8699 161.027 23.3406C160.551 23.8113 160.173 24.3712 159.914 24.9882C159.654 25.6052 159.519 26.2673 159.515 26.9366V47.4025H164.689V39.014H179.796V47.4025H184.97V26.9366C184.966 26.2643 184.83 25.5994 184.569 24.98C184.307 24.3607 183.926 23.7993 183.446 23.3281C182.967 22.8569 182.399 22.4853 181.776 22.2346C181.152 21.9839 180.485 21.8592 179.813 21.8676ZM179.775 33.907H164.668V26.9746H179.775V33.907ZM240.224 21.8676H225.048C224.379 21.8639 223.716 21.992 223.097 22.2448C222.477 22.4975 221.913 22.8699 221.438 23.3406C220.962 23.8113 220.584 24.3712 220.325 24.9882C220.066 25.6052 219.93 26.2673 219.926 26.9366V47.4025H225.1V39.014H240.172V47.4025H245.347V26.9366C245.343 26.2673 245.208 25.6053 244.948 24.9883C244.689 24.3713 244.31 23.8116 243.834 23.341C242.874 22.3904 241.575 21.8604 240.224 21.8676ZM240.172 33.907H225.066V26.9746H240.172V33.907ZM210.165 42.2955H208.096L200.698 24.007C200.444 23.376 200.008 22.8351 199.445 22.4539C198.882 22.0727 198.218 21.8685 197.538 21.8676H192.948C192.276 21.864 191.618 22.0599 191.057 22.4306C190.496 22.8013 190.058 23.3301 189.798 23.9501C189.625 24.3615 189.535 24.803 189.533 25.2492V47.4025H194.707V26.9746H196.776L204.171 45.2631C204.429 45.8929 204.868 46.4317 205.433 46.8104C205.998 47.1889 206.663 47.3904 207.344 47.3888H211.935C212.381 47.3912 212.823 47.3056 213.237 47.1367C213.65 46.968 214.025 46.7194 214.343 46.4053C214.983 45.7711 215.345 44.9084 215.35 44.0071V21.8676H210.165V42.2955ZM140.183 21.8676H135.009V42.3335C135.013 43.0042 135.149 43.6677 135.409 44.2858C135.67 44.9039 136.05 45.4645 136.527 45.9354C137.005 46.4062 137.57 46.7782 138.192 47.03C138.813 47.2818 139.478 47.4083 140.149 47.4025H155.67V42.2955H140.183V21.8676Z" fill="#F3F3F3"/>
<path d="M267.371 14.3242V17.0342H263.966V46.8443H267.371V49.5543H260.668V14.3242H267.371ZM280.157 39.5344V24.7007H283.474V43.9917H280.318L280.157 39.5344ZM280.781 35.4694L282.154 35.4338C282.154 36.7175 282.018 37.9061 281.744 38.9996C281.483 40.0812 281.055 41.0202 280.461 41.8166C279.866 42.6129 279.088 43.2369 278.125 43.6886C277.162 44.1284 275.991 44.3483 274.613 44.3483C273.674 44.3483 272.812 44.2116 272.027 43.9382C271.255 43.6648 270.589 43.2429 270.031 42.6724C269.472 42.1018 269.038 41.3589 268.729 40.4437C268.432 39.5285 268.283 38.4291 268.283 37.1454V24.7007H271.582V37.181C271.582 38.0487 271.677 38.7678 271.867 39.3383C272.069 39.897 272.336 40.3427 272.669 40.6755C273.014 40.9964 273.394 41.2223 273.81 41.353C274.238 41.4838 274.678 41.5491 275.13 41.5491C276.532 41.5491 277.644 41.2817 278.464 40.7468C279.284 40.2001 279.872 39.4691 280.229 38.5539C280.597 37.6267 280.781 36.5986 280.781 35.4694ZM289.895 28.8192V43.9917H286.596V24.7007H289.716L289.895 28.8192ZM289.11 33.6152L287.737 33.5617C287.749 32.2424 287.945 31.0241 288.326 29.9068C288.706 28.7776 289.241 27.797 289.93 26.965C290.62 26.133 291.44 25.4911 292.391 25.0395C293.354 24.5759 294.417 24.3441 295.582 24.3441C296.533 24.3441 297.389 24.4749 298.15 24.7364C298.91 24.986 299.558 25.3901 300.093 25.9487C300.64 26.5074 301.056 27.2324 301.341 28.1239C301.626 29.0035 301.769 30.0791 301.769 31.3509V43.9917H298.453V31.3153C298.453 30.305 298.304 29.4967 298.007 28.8905C297.71 28.2725 297.276 27.8267 296.705 27.5534C296.135 27.2681 295.434 27.1255 294.602 27.1255C293.781 27.1255 293.033 27.2978 292.355 27.6425C291.69 27.9872 291.113 28.4626 290.626 29.0688C290.15 29.675 289.776 30.3703 289.503 31.1548C289.241 31.9274 289.11 32.7475 289.11 33.6152ZM308.457 24.7007V43.9917H305.141V24.7007H308.457ZM304.892 19.5838C304.892 19.0489 305.052 18.5973 305.373 18.2288C305.706 17.8603 306.193 17.6761 306.835 17.6761C307.465 17.6761 307.946 17.8603 308.279 18.2288C308.624 18.5973 308.796 19.0489 308.796 19.5838C308.796 20.0949 308.624 20.5347 308.279 20.9031C307.946 21.2597 307.465 21.438 306.835 21.438C306.193 21.438 305.706 21.2597 305.373 20.9031C305.052 20.5347 304.892 20.0949 304.892 19.5838ZM317.713 41.0143L322.991 24.7007H326.36L319.425 43.9917H317.214L317.713 41.0143ZM313.309 24.7007L318.747 41.1034L319.122 43.9917H316.911L309.922 24.7007H313.309ZM335.384 44.3483C334.041 44.3483 332.823 44.1224 331.729 43.6708C330.648 43.2072 329.715 42.5594 328.93 41.7274C328.158 40.8954 327.563 39.9089 327.147 38.7678C326.731 37.6267 326.523 36.3787 326.523 35.0237V34.2749C326.523 32.7059 326.755 31.3093 327.219 30.0851C327.682 28.8489 328.312 27.803 329.109 26.9472C329.905 26.0914 330.808 25.4436 331.819 25.0038C332.829 24.564 333.875 24.3441 334.957 24.3441C336.335 24.3441 337.524 24.5819 338.522 25.0573C339.533 25.5327 340.359 26.1984 341.001 27.0541C341.642 27.8981 342.118 28.8965 342.427 30.0494C342.736 31.1905 342.89 32.4385 342.89 33.7935V35.2733H328.485V32.5811H339.592V32.3315C339.545 31.4757 339.366 30.6437 339.057 29.8355C338.76 29.0272 338.285 28.3616 337.631 27.8386C336.977 27.3156 336.086 27.0541 334.957 27.0541C334.208 27.0541 333.518 27.2146 332.888 27.5355C332.258 27.8446 331.718 28.3081 331.266 28.9262C330.814 29.5443 330.464 30.299 330.214 31.1905C329.964 32.0819 329.84 33.1101 329.84 34.2749V35.0237C329.84 35.9389 329.964 36.8007 330.214 37.6089C330.476 38.4053 330.85 39.1066 331.337 39.7127C331.836 40.3189 332.437 40.7944 333.138 41.1391C333.851 41.4838 334.659 41.6561 335.563 41.6561C336.728 41.6561 337.714 41.4184 338.522 40.9429C339.331 40.4675 340.038 39.8316 340.644 39.0352L342.641 40.622C342.225 41.252 341.696 41.8522 341.054 42.4227C340.412 42.9933 339.622 43.4568 338.683 43.8134C337.756 44.17 336.656 44.3483 335.384 44.3483ZM348.135 27.7316V43.9917H344.836V24.7007H348.046L348.135 27.7316ZM354.161 24.5937L354.143 27.6603C353.87 27.6009 353.608 27.5652 353.359 27.5534C353.121 27.5296 352.848 27.5177 352.539 27.5177C351.778 27.5177 351.106 27.6366 350.524 27.8743C349.941 28.112 349.448 28.4448 349.044 28.8727C348.64 29.3006 348.319 29.8117 348.081 30.406C347.855 30.9884 347.707 31.6303 347.636 32.3315L346.708 32.8664C346.708 31.7016 346.821 30.6081 347.047 29.5859C347.285 28.5637 347.647 27.6603 348.135 26.8759C348.622 26.0795 349.24 25.4614 349.989 25.0216C350.75 24.57 351.653 24.3441 352.699 24.3441C352.937 24.3441 353.21 24.3739 353.519 24.4333C353.828 24.4808 354.042 24.5343 354.161 24.5937ZM366.537 38.8748C366.537 38.3993 366.43 37.9596 366.216 37.5554C366.014 37.1394 365.592 36.765 364.95 36.4322C364.32 36.0875 363.369 35.7904 362.098 35.5408C361.028 35.3149 360.059 35.0475 359.191 34.7384C358.336 34.4294 357.605 34.055 356.998 33.6152C356.404 33.1754 355.947 32.6584 355.626 32.0641C355.305 31.4698 355.144 30.7745 355.144 29.9781C355.144 29.2174 355.311 28.4983 355.643 27.8208C355.988 27.1433 356.47 26.543 357.088 26.0201C357.718 25.4971 358.472 25.087 359.352 24.7899C360.231 24.4927 361.212 24.3441 362.294 24.3441C363.839 24.3441 365.158 24.6175 366.252 25.1643C367.345 25.711 368.183 26.442 368.766 27.3572C369.348 28.2606 369.639 29.2649 369.639 30.3703H366.341C366.341 29.8355 366.18 29.3184 365.859 28.8192C365.55 28.3081 365.093 27.8862 364.487 27.5534C363.892 27.2206 363.161 27.0541 362.294 27.0541C361.378 27.0541 360.636 27.1968 360.065 27.482C359.506 27.7554 359.096 28.1061 358.835 28.534C358.585 28.9618 358.46 29.4135 358.46 29.889C358.46 30.2455 358.52 30.5665 358.639 30.8517C358.769 31.1251 358.995 31.3807 359.316 31.6184C359.637 31.8442 360.089 32.0582 360.671 32.2602C361.254 32.4623 361.997 32.6643 362.9 32.8664C364.481 33.223 365.782 33.6509 366.804 34.1501C367.827 34.6493 368.587 35.2614 369.087 35.9865C369.586 36.7115 369.835 37.5911 369.835 38.6252C369.835 39.4691 369.657 40.2417 369.3 40.9429C368.956 41.6442 368.451 42.2504 367.785 42.7615C367.131 43.2607 366.347 43.6529 365.432 43.9382C364.528 44.2116 363.512 44.3483 362.383 44.3483C360.683 44.3483 359.245 44.0452 358.068 43.439C356.891 42.8328 356 42.0483 355.394 41.0856C354.788 40.1228 354.485 39.1066 354.485 38.0368H357.801C357.848 38.9401 358.11 39.6593 358.585 40.1941C359.061 40.7171 359.643 41.0915 360.332 41.3173C361.022 41.5313 361.705 41.6383 362.383 41.6383C363.286 41.6383 364.041 41.5194 364.647 41.2817C365.265 41.044 365.735 40.7171 366.056 40.3011C366.377 39.8851 366.537 39.4096 366.537 38.8748ZM375.846 24.7007V43.9917H372.53V24.7007H375.846ZM372.281 19.5838C372.281 19.0489 372.441 18.5973 372.762 18.2288C373.095 17.8603 373.582 17.6761 374.224 17.6761C374.854 17.6761 375.335 17.8603 375.668 18.2288C376.013 18.5973 376.185 19.0489 376.185 19.5838C376.185 20.0949 376.013 20.5347 375.668 20.9031C375.335 21.2597 374.854 21.438 374.224 21.438C373.582 21.438 373.095 21.2597 372.762 20.9031C372.441 20.5347 372.281 20.0949 372.281 19.5838ZM387.313 24.7007V27.2324H376.883V24.7007H387.313ZM380.413 20.0117H383.712V39.2135C383.712 39.8673 383.813 40.3605 384.015 40.6933C384.217 41.0261 384.478 41.246 384.799 41.353C385.12 41.46 385.465 41.5135 385.833 41.5135C386.107 41.5135 386.392 41.4897 386.689 41.4422C386.998 41.3827 387.23 41.3352 387.384 41.2995L387.402 43.9917C387.141 44.0749 386.796 44.1522 386.368 44.2235C385.952 44.3067 385.447 44.3483 384.853 44.3483C384.044 44.3483 383.302 44.1878 382.624 43.8669C381.947 43.546 381.406 43.0111 381.002 42.2623C380.609 41.5016 380.413 40.4794 380.413 39.1957V20.0117ZM394.697 41.9949L400.063 24.7007H403.594L395.856 46.9691C395.677 47.4446 395.44 47.9557 395.143 48.5024C394.857 49.0611 394.489 49.59 394.037 50.0892C393.586 50.5884 393.039 50.9926 392.397 51.3016C391.767 51.6225 391.012 51.783 390.133 51.783C389.871 51.783 389.538 51.7473 389.134 51.676C388.73 51.6047 388.445 51.5453 388.278 51.4977L388.261 48.8234C388.356 48.8352 388.504 48.8471 388.706 48.859C388.92 48.8828 389.069 48.8947 389.152 48.8947C389.901 48.8947 390.537 48.7936 391.06 48.5916C391.583 48.4014 392.023 48.0745 392.379 47.611C392.748 47.1593 393.063 46.5353 393.324 45.7389L394.697 41.9949ZM390.757 24.7007L395.767 39.6771L396.622 43.1537L394.251 44.3661L387.155 24.7007H390.757ZM402.33 17.0342V14.3242H409.07V49.5543H402.33V46.8443H405.753V17.0342H402.33Z" fill="url(#paint3_linear_534_1611)"/>
<defs>
<linearGradient id="paint0_linear_534_1611" x1="1.19975" y1="54.6352" x2="27.1741" y2="17.5568" gradientUnits="userSpaceOnUse">
<stop offset="0.2" stop-color="#573AFF"/>
<stop offset="1" stop-color="#D946EF"/>
</linearGradient>
<linearGradient id="paint1_linear_534_1611" x1="-6.4509" y1="14.1354" x2="1.1715" y2="3.25443" gradientUnits="userSpaceOnUse">
<stop offset="0.2" stop-color="#573AFF"/>
<stop offset="1" stop-color="#D946EF"/>
</linearGradient>
<linearGradient id="paint2_linear_534_1611" x1="-0.240483" y1="49.8639" x2="7.41134" y2="38.9409" gradientUnits="userSpaceOnUse">
<stop offset="0.2" stop-color="#573AFF"/>
<stop offset="1" stop-color="#D946EF"/>
</linearGradient>
<linearGradient id="paint3_linear_534_1611" x1="258.047" y1="5.9917" x2="288.488" y2="97.9107" gradientUnits="userSpaceOnUse">
<stop stop-color="#6366F1"/>
<stop offset="0.5" stop-color="#D946EF"/>
<stop offset="1" stop-color="#EC4899"/>
</linearGradient>
</defs>
</svg>
