<svg xmlns="http://www.w3.org/2000/svg" xmlns:xlink="http://www.w3.org/1999/xlink" version="1.1" x="0px" y="0px" viewBox="0 0 100 125" enable-background="new 0 0 100 100" xml:space="preserve">
	<g>
		<path d="M88.513,68.812c-0.817-0.521-1.786-0.691-2.733-0.481c-0.691,0.154-1.305,0.5-1.79,0.993l-8.399-5.349v-27.84l8.4-5.349   c0.485,0.492,1.099,0.839,1.789,0.992c0.264,0.059,0.529,0.088,0.793,0.088c0.682,0,1.35-0.194,1.94-0.569   c0.817-0.52,1.381-1.327,1.591-2.272c0.21-0.945,0.039-1.915-0.481-2.732s-1.328-1.382-2.272-1.591   c-0.947-0.21-1.915-0.039-2.733,0.481c-0.817,0.521-1.382,1.328-1.591,2.272c-0.154,0.691-0.099,1.394,0.142,2.042l-8.358,5.323   L50.726,20.912V10.876c1.632-0.352,2.86-1.804,2.86-3.54c0-1.999-1.626-3.625-3.624-3.625s-3.624,1.626-3.624,3.625   c0,1.736,1.228,3.188,2.86,3.54v10.036L25.153,34.795l-8.323-5.3c0.241-0.648,0.296-1.351,0.142-2.041   c-0.21-0.945-0.775-1.752-1.591-2.272c-0.817-0.519-1.788-0.69-2.732-0.481c-0.945,0.209-1.753,0.775-2.272,1.591   c-0.52,0.817-0.691,1.787-0.481,2.732c0.21,0.945,0.775,1.753,1.591,2.272c0.589,0.375,1.258,0.569,1.94,0.568   c0.264,0,0.529-0.029,0.792-0.087c0.691-0.153,1.305-0.5,1.79-0.992l8.324,5.301v27.938l-8.324,5.3   c-0.485-0.492-1.099-0.839-1.79-0.993c-0.947-0.211-1.916-0.039-2.732,0.481c-0.817,0.521-1.382,1.328-1.591,2.272   c-0.21,0.945-0.039,1.916,0.481,2.733c0.52,0.817,1.327,1.381,2.272,1.591c0.263,0.058,0.529,0.087,0.792,0.087   c0.682,0,1.351-0.193,1.94-0.568c0.817-0.521,1.382-1.328,1.591-2.272c0.153-0.691,0.099-1.394-0.142-2.042l8.305-5.289   l24.063,13.894v9.904c-1.632,0.352-2.86,1.804-2.86,3.54c0,2,1.626,3.626,3.624,3.626s3.624-1.626,3.624-3.626   c0-1.736-1.228-3.188-2.86-3.54v-9.904l24.103-13.917l8.341,5.312c-0.241,0.648-0.296,1.351-0.142,2.04   c0.209,0.945,0.775,1.753,1.591,2.273c0.589,0.375,1.258,0.568,1.94,0.568c0.263,0,0.529-0.029,0.793-0.087   c0.944-0.21,1.751-0.775,2.272-1.591c0.519-0.817,0.691-1.787,0.481-2.733C89.894,70.139,89.33,69.332,88.513,68.812z    M84.519,27.785c0.122-0.546,0.449-1.013,0.922-1.314c0.34-0.217,0.727-0.33,1.122-0.33c0.152,0,0.306,0.017,0.457,0.051   c0.547,0.121,1.014,0.448,1.314,0.921c0.301,0.472,0.4,1.033,0.278,1.58c-0.121,0.547-0.448,1.014-0.92,1.314   c-0.47,0.301-1.029,0.402-1.581,0.279c-0.547-0.121-1.012-0.448-1.313-0.921C84.497,28.893,84.398,28.331,84.519,27.785z    M15.202,29.365c-0.3,0.472-0.767,0.799-1.314,0.92c-0.544,0.121-1.108,0.023-1.58-0.279h-0.001c-0.472-0.3-0.799-0.767-0.92-1.314   s-0.023-1.108,0.279-1.581c0.3-0.472,0.767-0.799,1.314-0.92c0.152-0.034,0.306-0.051,0.458-0.051c0.394,0,0.781,0.112,1.122,0.33   c0.473,0.301,0.8,0.768,0.921,1.314C15.602,28.331,15.503,28.893,15.202,29.365z M15.481,72.323   c-0.121,0.547-0.448,1.014-0.921,1.314c-0.472,0.301-1.032,0.401-1.58,0.278c-0.547-0.121-1.014-0.448-1.314-0.92   c-0.301-0.472-0.4-1.033-0.279-1.579c0.121-0.547,0.448-1.014,0.921-1.314c0.34-0.217,0.727-0.329,1.122-0.329   c0.152,0,0.306,0.017,0.458,0.051c0.547,0.121,1.014,0.448,1.314,0.92C15.503,71.215,15.602,71.776,15.481,72.323z M47.866,7.336   c0-1.156,0.941-2.097,2.096-2.097s2.096,0.941,2.096,2.097c0,1.156-0.941,2.096-2.096,2.096S47.866,8.492,47.866,7.336z    M52.058,92.663c0,1.157-0.941,2.098-2.096,2.098s-2.096-0.941-2.096-2.098c0-1.156,0.941-2.096,2.096-2.096   S52.058,91.508,52.058,92.663z M74.063,63.98L49.962,77.896L25.861,63.98V36.15l24.101-13.915L74.063,36.15V63.98z M88.334,72.995   c-0.301,0.473-0.768,0.8-1.314,0.92c-0.543,0.124-1.107,0.023-1.579-0.278c-0.473-0.301-0.8-0.768-0.922-1.314   c-0.121-0.546-0.021-1.107,0.279-1.579c0.301-0.473,0.766-0.8,1.313-0.92c0.153-0.035,0.307-0.051,0.458-0.051   c0.395,0,0.782,0.112,1.122,0.329c0.473,0.301,0.8,0.768,0.92,1.314C88.734,71.962,88.635,72.523,88.334,72.995z" />
		<path d="M27.818,37.28v25.571l22.144,12.783l22.144-12.783V37.28L49.962,24.496L27.818,37.28z M70.578,61.967L49.962,73.87   L29.346,61.967V38.163L49.962,26.26l20.616,11.902V61.967z" />
	</g>
</svg>
