<svg width="25" height="24" viewBox="0 0 25 24" fill="none" xmlns="http://www.w3.org/2000/svg">
<g id="icon">
<path id="Vector" d="M20.1371 21L13.8371 14.7C13.3371 15.1 12.7621 15.4167 12.1121 15.65C11.4621 15.8833 10.7704 16 10.0371 16C8.22044 16 6.68311 15.3707 5.42511 14.112C4.16711 12.8533 3.53778 11.316 3.53711 9.5C3.53711 7.68333 4.16644 6.146 5.42511 4.888C6.68378 3.63 8.22111 3.00067 10.0371 3C11.8538 3 13.3911 3.62933 14.6491 4.888C15.9071 6.14667 16.5364 7.684 16.5371 9.5C16.5371 10.2333 16.4204 10.925 16.1871 11.575C15.9538 12.225 15.6371 12.8 15.2371 13.3L21.5371 19.6L20.1371 21ZM10.0371 14C11.2871 14 12.3498 13.5623 13.2251 12.687C14.1004 11.8117 14.5378 10.7493 14.5371 9.5C14.5371 8.25 14.0994 7.18733 13.2241 6.312C12.3488 5.43667 11.2864 4.99933 10.0371 5C8.78711 5 7.72444 5.43767 6.84911 6.313C5.97378 7.18833 5.53644 8.25067 5.53711 9.5C5.53711 10.75 5.97478 11.8127 6.85011 12.688C7.72544 13.5633 8.78778 14.0007 10.0371 14Z" fill="#A0A0A8"/>
</g>
</svg>
