<svg xmlns="http://www.w3.org/2000/svg" width="1440" height="338" viewBox="0 0 1440 338" fill="none">
  <g filter="url(#filter0_d_327_26)">
    <path d="M719.5 28.5C652.2 28.5 621.721 92.6632 543.739 92.6632C478.576 92.6632 442.777 28 368 28C304.973 28 277.531 92.6632 204.036 92.6632C147.418 92.6632 121.78 62.7522 0 62.7522V338H1440V62.7522C1318.22 62.7522 1292.58 92.6632 1235.96 92.6632C1162.47 92.6632 1127.53 28 1064.5 28C989.723 28 961.424 92.6632 896.261 92.6632C818.279 92.6632 786.8 28.5 719.5 28.5Z" fill="url(#paint0_linear_327_26)" fill-opacity="0.01" shape-rendering="crispEdges"/>
  </g>
  <defs>
    <filter id="filter0_d_327_26" x="-28" y="0" width="1496" height="366" filterUnits="userSpaceOnUse" color-interpolation-filters="sRGB">
      <feFlood flood-opacity="0" result="BackgroundImageFix"/>
      <feColorMatrix in="SourceAlpha" type="matrix" values="0 0 0 0 0 0 0 0 0 0 0 0 0 0 0 0 0 0 127 0" result="hardAlpha"/>
      <feOffset/>
      <feGaussianBlur stdDeviation="14"/>
      <feComposite in2="hardAlpha" operator="out"/>
      <feColorMatrix type="matrix" values="0 0 0 0 0.0880598 0 0 0 0 0.0542361 0 0 0 0 0.295833 0 0 0 0.2 0"/>
      <feBlend mode="normal" in2="BackgroundImageFix" result="effect1_dropShadow_327_26"/>
      <feBlend mode="normal" in="SourceGraphic" in2="effect1_dropShadow_327_26" result="shape"/>
    </filter>
    <linearGradient id="paint0_linear_327_26" x1="720" y1="27.4999" x2="720" y2="339" gradientUnits="userSpaceOnUse">
      <stop stop-color="#9BC9FC"/>
      <stop offset="1" stop-color="#80B6F2" stop-opacity="0"/>
    </linearGradient>
  </defs>
</svg>