<svg xmlns="http://www.w3.org/2000/svg" xmlns:xlink="http://www.w3.org/1999/xlink" version="1.1" x="0px" y="0px" viewBox="0 0 100 125" style="enable-background:new 0 0 100 100;" xml:space="preserve">
	<style type="text/css">
		.st0{fill-rule:evenodd;clip-rule:evenodd;}
	</style>
	<path d="M50,2.5c-12.5979271,0-24.6794643,5.0044284-33.5873489,13.9126492C7.5044303,25.3201942,2.5000019,37.4024086,2.5000019,50  s5.0044284,24.6794586,13.9126492,33.5873489C25.3201942,92.495575,37.4024086,97.5,50,97.5  s24.6794586-5.004425,33.5873413-13.9126511C92.4955673,74.6798096,97.5,62.5975914,97.5,50  s-5.0044327-24.6794643-13.9126587-33.5873489C74.6798019,7.5044298,62.5975838,2.5000012,50,2.5z M71.532608,68.2480087  c-6.4178772-1.4485855-12.9748688-2.1914291-19.5545883-2.2165375V50.0003357h21.7701111  c0.0238571,6.1515465-0.7209778,12.2812042-2.2165375,18.2483521L71.532608,68.2480087z M26.2501717,49.9996567h21.7701111  v16.0311356c-6.5781937,0.0424118-13.1333122,0.7852554-19.5545883,2.2165375  c-1.4982738-5.9659538-2.2431698-12.0962944-2.2165356-18.2483482L26.2501717,49.9996567z M29.5356216,28.0310669  c6.0752068,1.3292961,12.267128,2.05826,18.4841499,2.1768417v15.8336716H26.2496605  c0.2995186-6.1216888,1.4041748-12.1770477,3.28545-18.0108528L29.5356216,28.0310669z M22.2920914,46.0419159H6.4584212  c0.8309722-8.3329659,4.0468001-16.2491245,9.2627735-22.7998352c3.1529589,1.658638,6.4689436,2.9853535,9.8955355,3.9587574  c-1.9084682,6.11236-3.0257282,12.4447422-3.3246384,18.8420963V46.0419159z M51.9793777,6.6562176  c7.0460663,1.0688782,13.1809845,7.9168358,17.1405945,17.6138916h-0.0006638  c-5.6326141,1.2305641-11.3746414,1.8932018-17.1388969,1.9793777L51.9793777,6.6562176z M48.0212975,6.6562176  l-0.0006599,19.5936089c-5.761879-0.125906-11.4998398-0.7885628-17.138895-1.9793777  c3.9580784-9.8955364,10.1333752-16.5453186,17.138895-17.6138916L48.0212975,6.6562176z M48.0212975,69.9885254  l-0.0006599,23.5530396c-7.9168358-1.1874924-14.645504-9.421051-18.445137-21.2560959h0.0006618  c6.0501003-1.4154587,12.2326908-2.1848145,18.4451351-2.2960968V69.9885254z M51.9793777,93.3430862V69.9885254  c6.2031174,0.0377731,12.3858719,0.7276077,18.445137,2.0582581c-3.7996368,11.8749161-10.5681648,20.1093216-18.445137,21.4935989  V93.3430862z M51.9793777,46.0419121V30.2082386c6.2110901-0.0225296,12.4043655-0.6719341,18.4841537-1.939682  c1.8680878,5.7552624,2.9726257,11.7303791,3.2854462,17.7733555H51.9793777z M74.3839493,27.0810661v-0.0006618  c3.429985-0.9635143,6.7471542-2.2908401,9.8955383-3.9580784c5.2369995,6.5841293,8.4542542,14.544735,9.2627716,22.9185867  H77.7085876c-0.2915878-6.4363747-1.4088211-12.8086243-3.3246384-18.960844V27.0810661z M81.6673431,20.1535816  c-2.7448044,1.320694-5.6075058,2.3809204-8.5502777,3.1668701c-1.9759903-5.4305687-5.0787354-10.3812208-9.103653-14.5269232  c6.7320557,2.2709923,12.7974319,6.1741066,17.6546021,11.3600512L81.6673431,20.1535816z M36.0676727,8.7935295  c-4.0171127,4.1370506-7.1190109,9.0731144-9.1043262,14.4870567c-2.969408-0.7640476-5.8592529-1.8110943-8.6291618-3.1271725  c4.8792305-5.1973114,10.9724197-9.100935,17.7343388-11.3600521L36.0676727,8.7935295z M22.292942,49.9994812  c-0.0212059,6.4947319,0.7501392,12.9682579,2.2954216,19.2763824c-3.8235531,1.0728455-7.4854374,2.6572647-10.8848867,4.7102661  C8.9906635,66.8730545,6.4711461,58.5321198,6.45927,49.998806L22.292942,49.9994812z M16.038763,77.1930313  c3.0382824-1.7235565,6.2840347-3.0535431,9.6583748-3.9587555c1.9522343,6.7877045,5.5094509,13.0060883,10.3706989,18.1296005  C28.1708527,88.6582642,21.218935,83.7393341,16.03825,77.1935425L16.038763,77.1930313z M63.9336815,91.2057724v-0.0006638  c4.8612556-5.1230087,8.4184685-11.3413925,10.3707008-18.1278992c3.3802872,0.8873062,6.6278992,2.2178955,9.6583786,3.9580765  c-5.1800003,6.5457916-12.1320877,11.4647217-20.0295868,14.1703339L63.9336815,91.2057724z M86.2975388,73.9871445v-0.0006638  c-3.395546-2.069458-7.0579376-3.6678238-10.8848801-4.7499619c1.5453339-6.2945557,2.3166275-12.7550163,2.2954178-19.2373619  H93.541748c-0.0119247,8.5331421-2.531395,16.8740807-7.2442093,23.9873238V73.9871445z" />
</svg>
